<svg preserveAspectRatio="none" width="100%" height="100%" overflow="visible" style="display: block;" viewBox="0 0 9.83398 18.167" fill="none" xmlns="http://www.w3.org/2000/svg">
<path id="Union" d="M5.75 0C6.16969 3.15529e-08 6.57226 0.167246 6.86914 0.463867C7.16591 0.760641 7.33283 1.16332 7.33301 1.58301V3.25C7.33301 4.16942 7.63203 5.06422 8.18359 5.7998L8.68359 6.4668C9.42091 7.44998 9.82238 8.64395 9.83203 9.87207C9.83291 9.88694 9.83398 9.9019 9.83398 9.91699C9.83398 9.92319 9.83316 9.92938 9.83301 9.93555V14.0645C9.83317 14.0709 9.83398 14.0774 9.83398 14.084C9.83398 14.0902 9.83316 14.0964 9.83301 14.1025V16.583C9.83301 17.0029 9.66607 17.4062 9.36914 17.7031C9.07224 17.9999 8.66977 18.167 8.25 18.167H1.58301C1.16339 18.1668 0.760632 17.9998 0.463867 17.7031C0.167144 17.4062 0 17.0028 0 16.583V9.91699C7.4851e-05 8.67299 0.403983 7.46201 1.15039 6.4668L1.65039 5.7998C2.20195 5.06422 2.5 4.16942 2.5 3.25V1.58301C2.50018 1.16332 2.66709 0.760641 2.96387 0.463867C3.26065 0.167094 3.66332 0.000172318 4.08301 0H5.75ZM4.08301 1.5C4.06115 1.50017 4.03989 1.50895 4.02441 1.52441C4.00894 1.53988 4.00018 1.56115 4 1.58301V3.25C4 4.4941 3.59606 5.7049 2.84961 6.7002L2.34961 7.36621C1.79793 8.10178 1.50007 8.99754 1.5 9.91699V16.583C1.5 16.605 1.509 16.627 1.52441 16.6426C1.53987 16.658 1.56122 16.6668 1.58301 16.667H8.25C8.27195 16.667 8.293 16.658 8.30859 16.6426C8.32421 16.627 8.33301 16.6051 8.33301 16.583V14.834H5.75C5.33027 14.8339 4.9277 14.6669 4.63086 14.3701C4.33393 14.0732 4.16699 13.6699 4.16699 13.25V10.75C4.16708 10.3302 4.33401 9.92771 4.63086 9.63086C4.92771 9.33401 5.3302 9.16708 5.75 9.16699H8.26465C8.14826 8.51745 7.88335 7.89947 7.4834 7.36621L6.9834 6.7002C6.2371 5.70496 5.83301 4.49397 5.83301 3.25V1.58301C5.83283 1.56115 5.82406 1.53988 5.80859 1.52441C5.79302 1.50909 5.77187 1.5 5.75 1.5H4.08301ZM5.75 10.667C5.72802 10.6671 5.70696 10.6759 5.69141 10.6914C5.67586 10.707 5.66708 10.728 5.66699 10.75V13.25C5.66699 13.2721 5.67578 13.2939 5.69141 13.3096C5.70694 13.325 5.72809 13.3339 5.75 13.334H8.33301V10.667H5.75Z" fill="var(--fill-0, #282B33)"/>
</svg>
