<svg preserveAspectRatio="none" width="100%" height="100%" overflow="visible" style="display: block;" viewBox="0 0 16.5 18.167" fill="none" xmlns="http://www.w3.org/2000/svg">
<path id="Union" d="M15.75 15C16.1641 15 16.4998 15.3359 16.5 15.75C16.5 16.1642 16.1642 16.5 15.75 16.5H14V17.417C13.9998 17.8311 13.6641 18.167 13.25 18.167C12.836 18.1668 12.5002 17.8309 12.5 17.417V16.5H10.667V17.417C10.6668 17.8311 10.3311 18.167 9.91699 18.167C9.50289 18.167 9.16717 17.8311 9.16699 17.417V16.5H7.33398V17.417C7.33381 17.831 6.99794 18.1668 6.58398 18.167C6.16988 18.167 5.83416 17.8311 5.83398 17.417V16.5H4V17.417C3.99982 17.8311 3.66411 18.167 3.25 18.167C2.83605 18.1668 2.50018 17.8309 2.5 17.417V16.5H0.75C0.335941 16.4998 0 16.1641 0 15.75C0.000170426 15.336 0.336046 15.0002 0.75 15H15.75ZM9.91699 0C10.5579 3.15668e-08 11.1728 0.254897 11.626 0.708008C12.079 1.16113 12.3339 1.77624 12.334 2.41699V3.33398H13.251C14.5854 3.33433 15.667 4.4165 15.667 5.75098V10.751C15.6666 12.0851 14.5851 13.1666 13.251 13.167H3.25098C1.91651 13.167 0.834342 12.0854 0.833984 10.751V5.75098C0.833984 4.41629 1.91629 3.33398 3.25098 3.33398H4.16699V2.41699C4.16708 1.77617 4.42186 1.16115 4.875 0.708008C5.3282 0.254893 5.94312 2.65317e-06 6.58398 0H9.91699ZM12.334 11.667H13.251C13.7567 11.6666 14.1666 11.2567 14.167 10.751V5.75098C14.167 5.24493 13.7569 4.83433 13.251 4.83398H12.334V11.667ZM5.66699 11.667H10.834V4.83398H5.66699V11.667ZM3.25098 4.83398C2.74472 4.83398 2.33398 5.24472 2.33398 5.75098V10.751C2.33434 11.2569 2.74494 11.667 3.25098 11.667H4.16699V4.83398H3.25098ZM6.58398 1.5C6.34094 1.5 6.10744 1.59674 5.93555 1.76855C5.76371 1.94039 5.66708 2.17399 5.66699 2.41699V3.33398H10.834V2.41699C10.8339 2.17407 10.7372 1.94037 10.5654 1.76855C10.3935 1.59675 10.16 1.5 9.91699 1.5H6.58398Z" fill="var(--fill-0, #282B33)"/>
</svg>
