<svg preserveAspectRatio="none" width="100%" height="100%" overflow="visible" style="display: block;" viewBox="0 0 18.167 11.5" fill="none" xmlns="http://www.w3.org/2000/svg">
<path id="Union" d="M9.08301 0C9.89229 0 10.5535 0.349545 11.0518 0.748047C11.0731 0.765115 11.0939 0.783445 11.1133 0.802734C11.4958 1.18526 11.9606 1.67114 12.3262 2.05762C12.5094 2.25133 12.6692 2.42212 12.7832 2.54395C12.7912 2.55249 12.7991 2.56127 12.8066 2.56934C12.8513 2.57944 12.9022 2.59081 12.958 2.60352C13.1938 2.65722 13.5242 2.73322 13.9014 2.82227C14.6534 2.99984 15.6027 3.23199 16.3672 3.44434H16.3662C17.3332 3.69499 18.1668 4.63679 18.167 5.75V8.25C18.167 8.67043 18.0232 9.07935 17.7178 9.38477C17.4124 9.69007 17.0034 9.83301 16.583 9.83301H15.5469C15.2315 10.8004 14.3236 11.4997 13.251 11.5C12.2096 11.5 11.3242 10.8404 10.9844 9.91699H7.18262C6.84297 10.8403 5.95827 11.4999 4.91699 11.5C3.84417 11.4999 2.93566 10.8005 2.62012 9.83301H1.58301C1.16295 9.83286 0.754446 9.6898 0.449219 9.38477C0.144021 9.07938 4.06504e-08 8.67029 0 8.25V4.91699C3.58756e-05 4.49424 0.0699686 4.07374 0.207031 3.67383L0.241211 3.59082L1.4082 1.17383L1.44043 1.11426C1.77208 0.561573 2.39667 0.000138249 3.25 0H9.08301ZM4.91699 8.16699C4.41088 8.16716 4 8.57783 4 9.08398C4.00018 9.58999 4.41098 9.99983 4.91699 10C5.33125 9.99986 5.68062 9.72492 5.79395 9.34766C5.76626 9.26475 5.75101 9.17622 5.75098 9.08398C5.75098 8.99152 5.76617 8.90242 5.79395 8.81934C5.68044 8.44219 5.33105 8.16714 4.91699 8.16699ZM13.251 8.16699C12.8367 8.16699 12.4857 8.44195 12.3721 8.81934C12.3999 8.90254 12.417 8.99138 12.417 9.08398C12.417 9.17636 12.3998 9.26464 12.3721 9.34766C12.4855 9.72516 12.8365 10 13.251 10C13.7568 9.99964 14.1668 9.58988 14.167 9.08398C14.167 8.57794 13.7569 8.16735 13.251 8.16699ZM3.25 1.5C3.10765 1.50015 2.90684 1.60021 2.74121 1.86328L1.61621 4.19141C1.53966 4.42543 1.50003 4.67063 1.5 4.91699V8.25C1.5 8.29088 1.50664 8.31395 1.50977 8.32227L1.51172 8.32324C1.51982 8.32633 1.54222 8.33294 1.58301 8.33301H2.62109C2.93715 7.36625 3.8448 6.66713 4.91699 6.66699C5.9584 6.66713 6.84307 7.32728 7.18262 8.25098H10.9844C11.3241 7.32717 12.2094 6.66699 13.251 6.66699C14.323 6.66728 15.23 7.36636 15.5459 8.33301H16.583C16.6243 8.33301 16.6471 8.32634 16.6553 8.32324L16.6572 8.32227C16.6603 8.31413 16.667 8.29123 16.667 8.25V5.75C16.6668 5.37029 16.343 4.98419 15.9844 4.89453C15.9783 4.89301 15.9719 4.89132 15.9658 4.88965C15.2305 4.6854 14.3043 4.45875 13.5566 4.28223C13.1842 4.19428 12.8578 4.11845 12.625 4.06543C12.5088 4.03897 12.4153 4.01823 12.3516 4.00391C12.32 3.9968 12.2948 3.99098 12.2783 3.9873C12.2705 3.98556 12.2638 3.98429 12.2598 3.9834C12.2583 3.98305 12.2567 3.98262 12.2559 3.98242H12.2539C12.1057 3.94941 11.9706 3.87196 11.8672 3.76074V3.75977H11.8662C11.8658 3.75913 11.8651 3.75772 11.8643 3.75684C11.8623 3.75467 11.8592 3.75106 11.8555 3.74707C11.8475 3.73857 11.8353 3.72606 11.8203 3.70996C11.7895 3.67694 11.7436 3.6283 11.6875 3.56836C11.575 3.44808 11.4172 3.27908 11.2363 3.08789C10.8832 2.71458 10.4453 2.25794 10.084 1.89551C9.75892 1.64264 9.42927 1.5 9.08301 1.5H3.25Z" fill="var(--fill-0, #282B33)"/>
</svg>
