<svg preserveAspectRatio="none" width="100%" height="100%" overflow="visible" style="display: block;" viewBox="0 0 16.5 18.167" fill="none" xmlns="http://www.w3.org/2000/svg">
<path id="Union" d="M9.08301 0C9.72379 0 10.3388 0.255008 10.792 0.708008C11.2451 1.16114 11.4999 1.77618 11.5 2.41699V8.33398H14.917C15.3368 8.33408 15.7393 8.50103 16.0361 8.79785C16.333 9.09471 16.4999 9.49719 16.5 9.91699C16.4999 11.2209 15.9815 12.4716 15.0596 13.3936C14.1612 14.2917 12.9511 14.8052 11.6836 14.8311L12.6543 16.3818L12.7275 16.5195C12.7915 16.6607 12.8269 16.8137 12.8311 16.9697C12.8365 17.1778 12.7865 17.3843 12.6855 17.5664C12.5846 17.7483 12.4361 17.9002 12.2568 18.0059C12.0776 18.1113 11.873 18.167 11.665 18.167H2.75195C2.54383 18.1669 2.33851 18.1115 2.15918 18.0059C1.98001 17.9002 1.83233 17.7483 1.73145 17.5664C1.63054 17.3843 1.57955 17.1778 1.58496 16.9697L1.59961 16.8154C1.62423 16.6623 1.68 16.5143 1.7627 16.3818L2.97949 14.4336C2.41068 14.1897 1.88655 13.8396 1.44043 13.3936C0.518666 12.4716 8.6248e-05 11.2207 0 9.91699V2.41699C9.1637e-05 1.77618 0.254876 1.16114 0.708008 0.708008C1.16114 0.254877 1.77618 8.89365e-05 2.41699 0H9.08301ZM2.41699 1.5C2.174 1.50009 1.94038 1.59673 1.76855 1.76855C1.59673 1.94038 1.50009 2.174 1.5 2.41699V9.91699C1.50009 10.8229 1.86052 11.6924 2.50098 12.333C3.14162 12.9735 4.01111 13.3329 4.91699 13.333C5.33083 13.3332 5.66663 13.6692 5.66699 14.083C5.66699 14.4971 5.33106 14.8328 4.91699 14.833C4.78083 14.833 4.64543 14.8256 4.51074 14.8145L3.35352 16.667H11.0635L10.0957 15.1191C9.98538 14.9426 9.92446 14.7393 9.91895 14.5312C9.91349 14.3234 9.96379 14.1175 10.0645 13.9355L10.1484 13.8047C10.241 13.6802 10.3586 13.5744 10.4932 13.4951L10.6318 13.4258C10.7747 13.3656 10.9289 13.334 11.085 13.334H11.583C12.489 13.334 13.3583 12.9735 13.999 12.333C14.6397 11.6923 14.9999 10.823 15 9.91699C14.9999 9.89502 14.9911 9.87395 14.9756 9.8584C14.96 9.84288 14.9389 9.83408 14.917 9.83398H4.08301C3.6692 9.83362 3.33317 9.49783 3.33301 9.08398C3.33301 8.66999 3.6691 8.33435 4.08301 8.33398H10V2.41699C9.99991 2.174 9.90327 1.94038 9.73145 1.76855C9.55957 1.59686 9.32596 1.5 9.08301 1.5H2.41699Z" fill="var(--fill-0, #282B33)"/>
</svg>
