<svg preserveAspectRatio="none" width="100%" height="100%" overflow="visible" style="display: block;" viewBox="0 0 15.667 15.667" fill="none" xmlns="http://www.w3.org/2000/svg">
<path id="Union" d="M14.917 0C15.3309 0.000175459 15.6668 0.336044 15.667 0.75C15.667 1.16411 15.3311 1.49982 14.917 1.5H9.5C8.99399 1.50017 8.58318 1.91099 8.58301 2.41699V6.58301C8.58301 7.91759 7.50153 8.99982 6.16699 9H2.41699C1.91098 9.00017 1.50018 9.41099 1.5 9.91699V14.917C1.49982 15.3311 1.16411 15.667 0.75 15.667C0.33604 15.6668 0.00017546 15.331 0 14.917V9.91699C0.000175913 8.58256 1.08256 7.50017 2.41699 7.5H6.16699C6.6731 7.49982 7.08301 7.08916 7.08301 6.58301V2.41699C7.08318 1.08256 8.16557 0.000170666 9.5 0H14.917ZM10.7168 7.43555C11.7129 6.68848 12.8001 6.50399 13.6963 6.80273C14.5836 7.09865 15.25 7.87758 15.25 8.86914C15.2499 9.69333 14.9627 10.2941 14.5205 10.7549C14.1255 11.1663 13.5982 11.4632 13.2314 11.6924C12.8244 11.9468 12.5154 12.1692 12.2939 12.4736C12.1754 12.6367 12.0713 12.8426 12.002 13.1191H14.5C14.9142 13.1191 15.25 13.4549 15.25 13.8691C15.2497 14.2831 14.9141 14.6191 14.5 14.6191H11.167C10.7529 14.6191 10.4172 14.2831 10.417 13.8691C10.417 12.8996 10.6632 12.1665 11.0811 11.5918C11.4846 11.0369 12.0102 10.6864 12.4365 10.4199C12.9028 10.1285 13.2086 9.95619 13.4385 9.7168C13.621 9.52668 13.7499 9.29429 13.75 8.86914C13.75 8.61084 13.5842 8.34644 13.2217 8.22559C12.8679 8.10766 12.2878 8.13282 11.6172 8.63574C11.2859 8.88416 10.8159 8.81652 10.5674 8.48535C10.3189 8.15406 10.3856 7.68412 10.7168 7.43555Z" fill="var(--fill-0, #282B33)"/>
</svg>
