<svg preserveAspectRatio="none" width="100%" height="100%" overflow="visible" style="display: block;" viewBox="0 0 16.5 14.834" fill="none" xmlns="http://www.w3.org/2000/svg">
<path id="Union" d="M12.417 0C13.0579 0 13.6728 0.2549 14.126 0.708008C14.579 1.16113 14.8339 1.77625 14.834 2.41699V4.28809C15.1917 4.4051 15.5209 4.60396 15.792 4.875C16.2452 5.32821 16.5 5.94304 16.5 6.58398V10.75C16.5 11.3909 16.2452 12.0058 15.792 12.459C15.521 12.73 15.1916 12.9279 14.834 13.0449V14.084C14.8338 14.4979 14.4979 14.8338 14.084 14.834C13.6699 14.834 13.3342 14.498 13.334 14.084V13.167H3.16699V14.084C3.16682 14.498 2.8311 14.834 2.41699 14.834C2.00289 14.834 1.66717 14.498 1.66699 14.084V13.0449C1.3092 12.9279 0.979133 12.7301 0.708008 12.459C0.2549 12.0058 0 11.3909 0 10.75V6.58398C0 5.94312 0.2549 5.3282 0.708008 4.875C0.979206 4.6038 1.30909 4.40511 1.66699 4.28809V2.41699C1.66708 1.77617 1.92186 1.16114 2.375 0.708008C2.8282 0.254896 3.44312 2.71632e-06 4.08398 0H12.417ZM14.083 5.66699C13.8402 5.66717 13.6073 5.7639 13.4355 5.93555C13.2637 6.10744 13.167 6.34095 13.167 6.58398V7.83398C13.1669 8.14313 13.0437 8.43952 12.8252 8.6582C12.6064 8.87689 12.3093 9 12 9H4.5C4.1907 8.99991 3.89352 8.87692 3.6748 8.6582C3.4564 8.43953 3.33309 8.14305 3.33301 7.83398V6.58398C3.33301 6.34087 3.23636 6.10746 3.06445 5.93555C2.89265 5.76392 2.65983 5.66708 2.41699 5.66699C2.174 5.66708 1.94038 5.76372 1.76855 5.93555C1.59675 6.10744 1.5 6.34095 1.5 6.58398V10.75C1.5 10.993 1.59675 11.2265 1.76855 11.3984C1.94038 11.5703 2.174 11.6669 2.41699 11.667H14.083C14.326 11.667 14.5596 11.5702 14.7314 11.3984C14.9034 11.2265 15 10.9931 15 10.75V6.58398C15 6.34087 14.9034 6.10746 14.7314 5.93555C14.5596 5.76374 14.326 5.66699 14.083 5.66699ZM4.08398 1.5C3.84095 1.5 3.60744 1.59675 3.43555 1.76855C3.26372 1.94039 3.16708 2.17399 3.16699 2.41699V4.28809C3.52508 4.40507 3.85471 4.60378 4.12598 4.875C4.57899 5.32818 4.83301 5.9432 4.83301 6.58398V7.5H11.667V6.58398C11.667 5.94328 11.9211 5.32817 12.374 4.875C12.6454 4.60363 12.9757 4.40508 13.334 4.28809V2.41699C13.3339 2.17407 13.2372 1.94037 13.0654 1.76855C12.8935 1.59675 12.66 1.5 12.417 1.5H4.08398Z" fill="var(--fill-0, #282B33)"/>
</svg>
