<svg width="59" height="42" viewBox="0 0 59 42" fill="none" xmlns="http://www.w3.org/2000/svg">
<path d="M52.6113 1.29529C52.6113 0.566688 53.1775 0 53.8852 0H57.7269C58.4346 0 59.0007 0.566688 59.0007 1.27505V39.8098C59.0007 40.5182 58.4346 41.1051 57.7269 41.1051H53.8852C53.1775 41.1051 52.6113 40.5384 52.6113 39.8098V1.29529Z" fill="white"/>
<path fill-rule="evenodd" clip-rule="evenodd" d="M33.3605 0C32.6528 0 32.0664 0.566688 32.0664 1.27505V39.8098C32.0664 40.5182 32.6326 41.1051 33.3605 41.1051H48.7678C49.4755 41.1051 50.0619 40.5384 50.0619 39.8098V37.2395C50.0619 36.5311 49.4958 35.9442 48.7678 35.9442H38.4963V23.0925H47.4738C48.1815 23.0925 48.7678 22.5258 48.7678 21.8175V19.2471C48.7678 18.5388 48.2017 17.9721 47.4738 17.9721H38.4963V5.14067H48.7678C49.4755 5.14067 50.0619 4.57398 50.0619 3.84538V1.29529C50.0417 0.566688 49.4553 0 48.7476 0H33.3402H33.3605Z" fill="white"/>
<path fill-rule="evenodd" clip-rule="evenodd" d="M26.326 26.3307C26.8719 26.3307 27.3572 26.6747 27.5392 27.1807C27.5796 27.3022 27.6201 27.4438 27.6201 27.6057V30.1761C27.6201 30.2773 27.6201 30.3582 27.5998 30.4189C27.4987 31.0666 26.9932 31.694 26.3867 31.8964L14.7401 35.9644H26.326C27.0337 35.9644 27.6201 36.5311 27.6201 37.2597V39.83C27.6201 40.5384 27.0539 41.1253 26.326 41.1253H1.29406C0.748129 41.1253 0.283075 40.7812 0.101098 40.3157C0.0404393 40.1943 0.0202178 40.0324 0.0202178 39.8705V37.3001C0.0202178 37.1787 0.020219 37.0977 0.0404387 37.0168C0.161757 36.3894 0.647027 35.7822 1.2334 35.5798L12.9001 31.5118H1.29406C0.586372 31.5118 0 30.9451 0 30.2165V27.6462C0 26.9379 0.566152 26.3509 1.29406 26.3509H26.326V26.3307Z" fill="white"/>
<path fill-rule="evenodd" clip-rule="evenodd" d="M1.29533 0C0.587639 0 0.0214844 0.566688 0.0214844 1.29529V16.0696C0.0214844 16.778 0.587634 17.3447 1.31554 17.3447H26.3475C27.0552 17.3447 27.6415 16.778 27.6415 16.0696V1.27505C27.6415 0.566688 27.0754 0 26.3475 0H22.5058C21.7981 0 21.2117 0.566688 21.2117 1.27505V5.12043H6.45134V1.29529C6.43112 0.566688 5.86497 0 5.15728 0H1.31554H1.29533ZM21.1915 10.2813H6.43112V12.204H21.1915V10.2813Z" fill="white"/>
<path fill-rule="evenodd" clip-rule="evenodd" d="M27.6201 20.5627C27.6201 19.8543 27.0539 19.2876 26.326 19.2876H1.29406C0.586372 19.2876 0 19.8543 0 20.5627V23.133C0 23.8414 0.566152 24.4081 1.29406 24.4081H10.2716V26.3307H17.3282V24.4081H26.3058C27.0135 24.4081 27.5998 23.8414 27.5998 23.133V20.5627H27.6201Z" fill="white"/>
</svg>
