<svg width="20" height="21" viewBox="0 0 20 21" fill="none" xmlns="http://www.w3.org/2000/svg">
<path d="M14.7051 10.9836C14.6977 9.59067 15.3151 8.53936 16.5648 7.76511C15.8656 6.74417 14.8092 6.18246 13.4145 6.07239C12.094 5.96612 10.6509 6.85803 10.1227 6.85803C9.56483 6.85803 8.28534 6.11035 7.28108 6.11035C5.20563 6.1445 3 7.79927 3 11.1657C3 12.1601 3.17853 13.1874 3.5356 14.2475C4.01169 15.6404 5.73007 19.0562 7.52285 18.9993C8.46015 18.9765 9.12221 18.3199 10.3422 18.3199C11.525 18.3199 12.1387 18.9993 13.1838 18.9993C14.9915 18.9727 16.5462 15.8681 17 14.4715C14.5749 13.3063 14.7051 11.0557 14.7051 10.9836ZM12.5999 4.75162C13.6153 3.52193 13.5223 2.40231 13.4926 2C12.5962 2.05313 11.5584 2.62243 10.9671 3.32457C10.3162 4.07605 9.93305 5.0059 10.0149 6.05342C10.9857 6.12932 11.8709 5.62075 12.5999 4.75162Z" fill="white"/>
</svg>
