<svg width="180" height="180" viewBox="0 0 180 180" fill="none" xmlns="http://www.w3.org/2000/svg"> <g style="mix-blend-mode:multiply" opacity="0.35"> <path d="M92.6083 149.118L119.83 158.42C120.484 158.611 120.264 159.458 119.61 159.458L28.3458 159.744C26.5437 159.744 25.9727 157.144 27.8284 156.953L90.9133 148.974C91.4604 148.879 92.0611 148.927 92.6024 149.118H92.6083Z" fill="url(#paint0_linear_2033_16243)"/> </g> <path d="M54.6685 61.4355L22.1714 150.751C20.185 156.208 25.6091 161.437 30.9678 159.231L119.996 122.617L54.6685 61.4355Z" fill="url(#paint1_linear_2033_16243)"/> <path d="M120.889 121.16C124.918 116.817 113.656 99.7455 95.7335 83.0299C77.8114 66.3142 60.0162 56.284 55.987 60.6269C51.9578 64.9697 63.2202 82.041 81.1424 98.7566C99.0645 115.472 116.86 125.502 120.889 121.16Z" fill="url(#paint2_linear_2033_16243)"/> <path d="M95.736 83.0407C104.342 91.1804 112.71 99.7852 119.003 109.905C126.092 121.473 121.471 126.255 109.284 120.638C98.4005 115.522 88.9559 107.919 80.1298 99.8627C71.4703 91.6157 63.2271 82.7247 57.351 72.2057C50.9456 60.5597 55.1742 55.3778 67.3368 61.7046C77.8579 67.2682 87.017 75.0203 95.736 83.0407ZM95.736 83.0407C87.0349 75.0978 77.6616 67.5425 66.9502 62.5156C46.473 53.6544 59.8727 73.5057 65.9867 80.6435C70.9529 86.6961 76.4246 92.3432 82.152 97.6802C87.8675 103.029 93.8804 108.092 100.256 112.624C107.762 118.211 128.536 130.209 118.229 110.346C112.46 99.9998 104.265 91.1744 95.736 83.0407Z" fill="#AEBEFF"/> <path d="M47.4424 81.2871C47.4424 81.2871 63.3579 115.933 99.7565 130.942L85.0483 136.989C85.0483 136.989 52.7238 124.985 42.2324 95.6046L47.4424 81.2871Z" fill="url(#paint3_linear_2033_16243)"/> <path d="M35.572 113.911C35.572 113.911 41.9655 135.754 66.9092 144.448L55.7815 149.022C55.7815 149.022 35.9586 144.568 31.373 125.432L35.566 113.905L35.572 113.911Z" fill="url(#paint4_linear_2033_16243)"/> <path d="M26.8592 137.865C26.8592 137.865 29.6545 150.942 43.1909 154.204L35.941 157.186C35.941 157.186 25.6161 155.486 24.2363 145.075L26.8592 137.865Z" fill="url(#paint5_linear_2033_16243)"/> <path d="M129.452 78.1868L130.945 87.3938C130.945 87.3938 127.323 86.2549 125.491 87.0122C123.659 87.7635 118.622 89.3915 115.059 88.9204L113.828 80.0115C114.863 80.0652 116.516 80.0592 118.467 79.6418C121.185 79.0753 122.178 78.1808 124.551 77.8827C125.646 77.7038 127.299 77.6501 129.44 78.1868H129.452Z" fill="url(#paint6_linear_2033_16243)"/> <path d="M71.2317 31.6921L68.7397 30.9229L68.3828 33.0099C68.3828 33.0099 69.1857 33.9283 70.0243 33.5108C69.9886 33.5407 70.8153 33.2187 71.2317 31.6921Z" fill="url(#paint7_linear_2033_16243)"/> <path d="M64.4343 26.9033L69.0555 27.9111C68.8533 31.6261 69.0972 33.3614 69.7276 33.5403C69.8584 33.5582 69.9893 33.5403 70.132 33.4568C70.0606 33.5105 69.9536 33.5641 69.8109 33.6476C68.5321 34.1783 67.0512 33.2004 66.1115 32.6279C65.267 32.0614 64.809 31.805 64.5235 31.2147C64.4462 31.0417 64.2678 30.6243 64.3035 29.056C64.3154 28.1735 64.3749 27.4579 64.4403 26.9093L64.4343 26.9033Z" fill="url(#paint8_linear_2033_16243)"/> <path d="M78.9826 71.1616L79.3871 79.5159C79.3871 79.5159 67.1352 78.4783 65.0239 70.9052C65.0239 70.9052 64.3042 68.0429 66.7249 64.9063C66.7843 64.9003 68.5567 70.9469 78.9886 71.1616H78.9826Z" fill="url(#paint9_linear_2033_16243)"/> <path d="M82.7949 28.5431L83.1637 35.997C83.1637 35.997 93.1673 36.7364 93.1971 40.3858C93.1971 40.3858 95.1122 38.1437 95.7961 36.0924C95.8437 35.9672 94.1189 29.2527 82.7949 28.5371V28.5431Z" fill="url(#paint10_linear_2033_16243)"/> <path d="M65.0771 70.8987C65.0771 70.8987 63.0074 63.743 78.3043 56.8436C83.7879 54.4047 89.1287 52.8782 93.5536 47.1893C94.6063 45.8178 95.4152 44.4105 95.9445 43.2179C96.7236 41.5184 97.0507 39.5625 96.6166 37.6901C96.6106 37.6304 96.5928 37.4516 96.5095 37.219C96.1408 35.9966 95.4211 34.2792 93.619 32.4902C93.9997 33.2893 94.5944 34.9053 94.3268 36.9149C94.2257 37.6424 94.0294 38.6263 93.3336 39.9561C92.4355 41.6675 90.7405 43.7069 86.8449 46.4618C84.6146 48.0182 82.5032 48.9604 80.2789 49.9801C78.6611 50.5108 74.2778 52.5979 72.0951 54.029C70.6975 54.9593 69.5972 55.8538 68.6575 56.6111C66.4093 58.5312 64.8332 61.155 64.4229 64.0769C64.3812 64.2618 64.3991 64.4407 64.3634 64.6255C64.0541 67.3566 64.5834 69.5212 65.089 70.9047L65.0771 70.8987Z" fill="url(#paint11_linear_2033_16243)"/> <path d="M120.757 69.803C120.757 69.803 117.991 70.3158 115.951 67.1613L121.97 64.7939C121.97 64.7939 125.318 67.9544 129.969 65.5751C129.85 65.5692 124.539 69.1112 120.751 69.803H120.757Z" fill="url(#paint12_linear_2033_16243)"/> <path d="M157.144 42.8253L151.327 46.9339C151.327 46.9339 146.974 48.1385 141.109 41.913C135.186 35.6875 133.164 35.5801 133.164 35.5801C132.908 32.5807 132.795 28.9909 134.008 28.5794C134.43 28.4244 134.894 28.7464 135.067 28.8716C138.695 31.2151 145.374 37.8402 149.822 40.4043C151.321 41.3226 153.706 42.4019 157.138 42.8253H157.144Z" fill="url(#paint13_linear_2033_16243)"/> <path d="M120.756 69.8025C120.756 69.8025 133.519 68.3893 134.227 56.0039C134.816 43.6721 130.801 26.1465 135.119 28.8836C135.119 28.8836 133.793 26.9038 128.065 31.6147C127.5 32.1216 127.114 32.7596 126.953 33.4692C126.87 33.9403 126.852 34.2981 126.906 34.4233C126.929 35.1389 128.476 47.5243 127.667 57.2144C126.9 66.1293 124.467 68.2104 123.236 68.92C122.255 69.4626 121.351 69.7131 120.75 69.8025H120.756Z" fill="url(#paint14_linear_2033_16243)"/> <path d="M109.643 45.5859L106.33 51.9188C106.33 51.9188 111.445 58.8181 117.928 56.7131L121.032 50.9647C121.086 51.0303 114.888 52.2527 109.643 45.5859Z" fill="url(#paint15_linear_2033_16243)"/> <path d="M61.8477 44.6377L62.6684 47.011C62.6684 47.011 65.66 47.3569 66.683 45.1863L65.9633 43.0098C65.9633 43.0098 64.8154 44.8941 61.8477 44.6437V44.6377Z" fill="url(#paint16_linear_2033_16243)"/> <path d="M155.913 63.2783C155.645 64.0297 155.324 64.8466 154.89 65.6815C153.581 68.18 151.732 69.7185 150.471 70.6547L154.004 77.5958C154.004 77.5958 159.267 73.1831 158.987 69.4382L155.913 63.2843V63.2783Z" fill="url(#paint17_linear_2033_16243)"/> <path d="M149.127 83.0107C148.817 83.1837 148.467 83.3626 148.074 83.5116C146.902 83.9589 145.832 83.9231 145.13 83.8635L144.262 87.2267C144.262 87.2267 147.319 87.3102 148.33 85.9804L149.121 83.0107H149.127Z" fill="url(#paint18_linear_2033_16243)"/> <path d="M131.279 123.714C131.88 123.547 132.546 123.386 133.278 123.291C135.46 123.011 137.28 123.506 138.44 123.893L141.289 118.503C141.289 118.503 136.103 117.107 133.831 118.962L131.279 123.708V123.714Z" fill="url(#paint19_linear_2033_16243)"/> <path d="M110.528 21C110.313 21.3578 110.058 21.7454 109.748 22.127C108.809 23.2779 107.697 23.8742 106.953 24.2261L108.042 28.1736C108.042 28.1736 111.217 26.4503 111.467 24.4944L110.528 21Z" fill="url(#paint20_linear_2033_16243)"/> <path d="M89.5997 67.6197C90.3253 67.4169 91.1639 67.2857 92.1214 67.2142C94.096 67.077 95.8029 67.4706 96.9746 67.7687L99.8829 62.3125C99.8829 62.3125 94.5956 60.8992 92.2939 62.7478L89.5938 67.6197H89.5997Z" fill="#CE496F"/> <path d="M103.154 107.173L101.215 103.16L104.635 102.015C104.635 102.015 106.389 103.136 105.896 104.656C105.931 104.591 105.604 106.07 103.148 107.167L103.154 107.173Z" fill="url(#paint21_linear_2033_16243)"/> <path d="M93.3457 96.8984L96.2243 104.454C102.422 103.16 105.407 103.124 105.871 104.144C105.931 104.358 105.937 104.585 105.841 104.847C105.919 104.71 105.978 104.519 106.079 104.263C106.644 101.967 104.622 99.707 103.409 98.2639C102.243 96.9759 101.696 96.2663 100.619 95.9383C100.31 95.8548 99.5608 95.6581 96.9261 96.1172C95.4392 96.3677 94.2497 96.642 93.3457 96.8984Z" fill="url(#paint22_linear_2033_16243)"/> <path d="M129.477 105.188L124.731 107.144C124.731 107.144 122.851 99.8209 126.812 97.0421C126.812 97.0421 128.353 96.0463 130.637 96.8274C130.577 96.8274 127.478 99.1053 129.483 105.188H129.477Z" fill="url(#paint23_linear_2033_16243)"/> <path d="M154.89 98.7119L150.691 100.459C150.691 100.459 152.285 106.398 150.215 107.18C150.215 107.18 151.91 107.806 153.218 107.818C153.218 107.818 156.739 105.438 154.89 98.7119Z" fill="url(#paint24_linear_2033_16243)"/> <path d="M126.752 97.0421C126.752 97.0421 130.469 94.3707 137.576 101.854C140.116 104.496 142.049 107.346 146.266 108.706C147.318 109.058 148.264 109.231 149.037 109.273C150.221 109.398 151.369 109.159 152.409 108.557C152.409 108.557 152.528 108.503 152.659 108.39C153.278 107.943 154.152 107.156 154.824 105.76C154.443 106.16 153.635 106.834 152.433 107.066C152.011 107.162 151.41 107.251 150.465 107.084C149.281 106.899 147.764 106.345 145.356 104.603C143.976 103.637 143.018 102.63 142.007 101.503C141.335 100.692 139.242 98.5508 137.987 97.5848C137.184 96.9467 136.434 96.4876 135.804 96.094C134.246 95.1757 132.42 94.7821 130.618 95.1041C130.499 95.0982 130.38 95.1518 130.261 95.1459C128.685 95.7183 127.507 96.4935 126.764 97.0481L126.752 97.0421Z" fill="url(#paint25_linear_2033_16243)"/> <defs> <linearGradient id="paint0_linear_2033_16243" x1="28.5" y1="163.875" x2="93.7538" y2="148.516" gradientUnits="userSpaceOnUse"> <stop stop-color="#BFCCD9"/> <stop offset="1" stop-color="white" stop-opacity="0"/> </linearGradient> <linearGradient id="paint1_linear_2033_16243" x1="45.987" y1="88.4465" x2="79.9709" y2="156.622" gradientUnits="userSpaceOnUse"> <stop offset="0.45" stop-color="#7B90FF"/> <stop offset="0.67" stop-color="#5D7BF9"/> <stop offset="0.73" stop-color="#5D7BF9"/> <stop offset="0.84" stop-color="#7B90FF"/> </linearGradient> <linearGradient id="paint2_linear_2033_16243" x1="122.325" y1="110.244" x2="43.7733" y2="65.6242" gradientUnits="userSpaceOnUse"> <stop offset="0.45" stop-color="#7B90FF"/> <stop offset="0.67" stop-color="#5061FA"/> <stop offset="0.87" stop-color="#5061FA"/> <stop offset="1" stop-color="#7B90FF"/> </linearGradient> <linearGradient id="paint3_linear_2033_16243" x1="55.027" y1="85.4213" x2="85.6271" y2="140.027" gradientUnits="userSpaceOnUse"> <stop offset="0.45" stop-color="#FBFBFB"/> <stop offset="0.67" stop-color="#CACDD8"/> <stop offset="0.87" stop-color="#CACDD8"/> <stop offset="1" stop-color="#FBFBFB"/> </linearGradient> <linearGradient id="paint4_linear_2033_16243" x1="29.0175" y1="99.9965" x2="59.6117" y2="154.602" gradientUnits="userSpaceOnUse"> <stop offset="0.53" stop-color="#FBFBFB"/> <stop offset="0.69" stop-color="#CACDD8"/> <stop offset="0.8" stop-color="#CACDD8"/> <stop offset="1" stop-color="#FBFBFB"/> </linearGradient> <linearGradient id="paint5_linear_2033_16243" x1="11.0538" y1="110.061" x2="41.648" y2="164.666" gradientUnits="userSpaceOnUse"> <stop offset="0.6" stop-color="#FBFBFB"/> <stop offset="0.74" stop-color="#CACDD8"/> <stop offset="0.8" stop-color="#CACDD8"/> <stop offset="1" stop-color="#FBFBFB"/> </linearGradient> <linearGradient id="paint6_linear_2033_16243" x1="113.463" y1="85.4694" x2="131.435" y2="81.9257" gradientUnits="userSpaceOnUse"> <stop offset="0.17" stop-color="#7B90FF"/> <stop offset="0.56" stop-color="#5061FA"/> <stop offset="0.78" stop-color="#7B90FF"/> <stop offset="0.91" stop-color="#5061FA"/> <stop offset="1" stop-color="#7B90FF"/> </linearGradient> <linearGradient id="paint7_linear_2033_16243" x1="70.5459" y1="30.5037" x2="68.6226" y2="33.6759" gradientUnits="userSpaceOnUse"> <stop stop-color="#CACDD8"/> <stop offset="1" stop-color="#919697"/> </linearGradient> <linearGradient id="paint8_linear_2033_16243" x1="66.3975" y1="33.983" x2="68.0132" y2="26.9546" gradientUnits="userSpaceOnUse"> <stop stop-color="#F1F2F5"/> <stop offset="1" stop-color="#DBDCDF"/> </linearGradient> <linearGradient id="paint9_linear_2033_16243" x1="65.57" y1="68.3187" x2="80.3357" y2="77.5882" gradientUnits="userSpaceOnUse"> <stop stop-color="#D48200"/> <stop offset="0.29" stop-color="#FBA718"/> <stop offset="0.79" stop-color="#FBDE21"/> </linearGradient> <linearGradient id="paint10_linear_2033_16243" x1="95.1751" y1="37.6673" x2="88.8745" y2="34.3258" gradientUnits="userSpaceOnUse"> <stop stop-color="#D48200"/> <stop offset="0.29" stop-color="#FBA718"/> <stop offset="0.79" stop-color="#FBDE21"/> </linearGradient> <linearGradient id="paint11_linear_2033_16243" x1="86.5407" y1="59.9695" x2="77.23" y2="49.2865" gradientUnits="userSpaceOnUse"> <stop stop-color="#D48200"/> <stop offset="0.29" stop-color="#FBA718"/> <stop offset="0.79" stop-color="#FBDE21"/> </linearGradient> <linearGradient id="paint12_linear_2033_16243" x1="115.994" y1="66.7305" x2="129.619" y2="68.1924" gradientUnits="userSpaceOnUse"> <stop offset="0.12" stop-color="#FC3A6C"/> <stop offset="0.85" stop-color="#901A3A"/> </linearGradient> <linearGradient id="paint13_linear_2033_16243" x1="157.429" y1="49.1763" x2="130.652" y2="27.7944" gradientUnits="userSpaceOnUse"> <stop offset="0.12" stop-color="#FC3A6C"/> <stop offset="0.85" stop-color="#901A3A"/> </linearGradient> <linearGradient id="paint14_linear_2033_16243" x1="121.744" y1="29.6319" x2="133.67" y2="67.2332" gradientUnits="userSpaceOnUse"> <stop offset="0.12" stop-color="#FC3A6C"/> <stop offset="1" stop-color="#901A3A"/> </linearGradient> <linearGradient id="paint15_linear_2033_16243" x1="105.832" y1="49.2207" x2="122.301" y2="55.0141" gradientUnits="userSpaceOnUse"> <stop stop-color="#F1F2F5"/> <stop offset="1" stop-color="#E1E5E7"/> </linearGradient> <linearGradient id="paint16_linear_2033_16243" x1="61.8697" y1="46.4723" x2="67.3252" y2="43.6584" gradientUnits="userSpaceOnUse"> <stop stop-color="#B1BEFF"/> <stop offset="0.5" stop-color="#7B90FF"/> </linearGradient> <linearGradient id="paint17_linear_2033_16243" x1="158.071" y1="66.645" x2="152.165" y2="74.5241" gradientUnits="userSpaceOnUse"> <stop stop-color="#F1F2F5"/> <stop offset="1" stop-color="#E1E5E7"/> </linearGradient> <linearGradient id="paint18_linear_2033_16243" x1="148.823" y1="84.7843" x2="144.528" y2="85.6665" gradientUnits="userSpaceOnUse"> <stop stop-color="#D48200"/> <stop offset="0.29" stop-color="#FBA718"/> <stop offset="0.79" stop-color="#FBDE21"/> </linearGradient> <linearGradient id="paint19_linear_2033_16243" x1="134.037" y1="120.176" x2="143.839" y2="124.284" gradientUnits="userSpaceOnUse"> <stop stop-color="#B1BEFF"/> <stop offset="0.5" stop-color="#7B90FF"/> </linearGradient> <linearGradient id="paint20_linear_2033_16243" x1="110.814" y1="24.0052" x2="104.126" y2="26.516" gradientUnits="userSpaceOnUse"> <stop stop-color="#B1BEFF"/> <stop offset="0.5" stop-color="#7B90FF"/> </linearGradient> <linearGradient id="paint21_linear_2033_16243" x1="102.093" y1="107.246" x2="103.158" y2="104.861" gradientUnits="userSpaceOnUse"> <stop offset="0.12" stop-color="#FC3A6C"/> <stop offset="1" stop-color="#901A3A"/> </linearGradient> <linearGradient id="paint22_linear_2033_16243" x1="93.5581" y1="101.989" x2="112.096" y2="98.4303" gradientUnits="userSpaceOnUse"> <stop offset="0.12" stop-color="#FC3A6C"/> <stop offset="1" stop-color="#901A3A"/> </linearGradient> <linearGradient id="paint23_linear_2033_16243" x1="128.39" y1="96.8286" x2="125.995" y2="107.282" gradientUnits="userSpaceOnUse"> <stop stop-color="#D48200"/> <stop offset="0.29" stop-color="#FBA718"/> <stop offset="0.79" stop-color="#FBDE21"/> </linearGradient> <linearGradient id="paint24_linear_2033_16243" x1="152.118" y1="107.793" x2="152.786" y2="103.455" gradientUnits="userSpaceOnUse"> <stop stop-color="#D48200"/> <stop offset="0.29" stop-color="#FBA718"/> <stop offset="0.79" stop-color="#FBDE21"/> </linearGradient> <linearGradient id="paint25_linear_2033_16243" x1="137.439" y1="107.302" x2="141.753" y2="99.7499" gradientUnits="userSpaceOnUse"> <stop stop-color="#D48200"/> <stop offset="0.29" stop-color="#FBA718"/> <stop offset="0.79" stop-color="#FBDE21"/> </linearGradient> </defs> </svg>
